<svg width="218" height="68" viewBox="0 0 218 68" fill="none" xmlns="http://www.w3.org/2000/svg">
<path d="M33.9992 -1.52588e-05C52.7766 -1.52588e-05 67.9984 15.1142 67.9984 33.7575C67.9984 52.402 52.7766 67.5162 33.9992 67.5162C15.2218 67.5162 0 52.402 0 33.7575C0 15.1142 15.2218 -1.52588e-05 33.9992 -1.52588e-05Z" fill="#2B61D1"/>
<path d="M37.9735 53.3465L34.1071 55.5795L25.7998 50.785L29.5718 48.6068L29.6662 48.5508L29.8112 48.6332L37.9735 53.3465Z" fill="white"/>
<path d="M52.818 23.4336V27.9294L44.6414 23.2084L42.4237 21.9277L40.206 23.2084L29.8117 29.2101L27.594 30.4909V33.1381L23.5936 30.8281L21.3759 29.5473L19.1593 30.8281L15.3972 32.9986V23.4336L34.1076 12.6318L52.818 23.4336Z" fill="white"/>
<path d="M52.8175 32.7924V44.7948L42.4232 50.7954L42.4089 50.7877L32.0278 44.7948V32.7924L42.4232 26.7874L52.8175 32.7924Z" fill="white"/>
<path d="M27.3556 37.8619V44.7633L21.377 48.2178L15.3972 44.7633V37.8619L21.377 34.4107L27.3556 37.8619Z" fill="white"/>
<path d="M94.1034 20.5061V32.0834H115.263V40.216H94.1034V56.176H83.5234V12.3701H118.07V20.5061H94.1034Z" fill="white"/>
<path d="M122.706 12.3703H132.891V56.177H122.706V12.3703Z" fill="white"/>
<path d="M176.228 21.0373V56.1766H166.563V51.9928C163.885 55.0629 159.968 56.6951 155.657 56.6951C146.84 56.6951 140.636 51.7314 140.636 40.8911V21.0373H150.825V39.3885C150.825 45.2672 153.434 47.8792 157.941 47.8792C162.642 47.8792 166.038 44.8762 166.038 38.4076V21.0373H176.228Z" fill="white"/>
<path d="M205.624 56.177L197.917 45.3983L189.96 56.177H178.845L192.363 38.4728L179.305 21.0377H190.732L198.192 31.2913L205.832 21.0377H216.675L203.611 38.2124L217.182 56.177H205.624Z" fill="white"/>
</svg>
