<svg width="1090" height="863" viewBox="0 0 1090 863" fill="none" xmlns="http://www.w3.org/2000/svg">
<g opacity="0.1">
<path d="M781.159 0H304.549C294.654 0 286.632 8.04395 286.632 17.9667V737.532C286.632 747.454 294.654 755.498 304.549 755.498H781.159C791.055 755.498 799.077 747.454 799.077 737.532V17.9667C799.077 8.04395 791.055 0 781.159 0Z" fill="#F2F6FB"/>
<path d="M318.436 35.9567C323.136 35.9567 326.947 32.5381 326.947 28.3209C326.947 24.1037 323.136 20.6851 318.436 20.6851C313.735 20.6851 309.925 24.1037 309.925 28.3209C309.925 32.5381 313.735 35.9567 318.436 35.9567Z" fill="#FF5645"/>
<path d="M346.656 35.9567C351.109 35.9567 354.719 32.5381 354.719 28.3209C354.719 24.1037 351.109 20.6851 346.656 20.6851C342.203 20.6851 338.593 24.1037 338.593 28.3209C338.593 32.5381 342.203 35.9567 346.656 35.9567Z" fill="#FFCB3D"/>
<path d="M373.98 35.9567C378.186 35.9567 381.595 32.5381 381.595 28.3209C381.595 24.1037 378.186 20.6851 373.98 20.6851C369.775 20.6851 366.365 24.1037 366.365 28.3209C366.365 32.5381 369.775 35.9567 373.98 35.9567Z" fill="#3ABF7C"/>
<path d="M503.435 20.6851H583.169C584.653 20.6851 585.856 21.8917 585.856 23.3801V33.2617C585.856 34.7501 584.653 35.9567 583.169 35.9567H503.435C501.951 35.9567 500.748 34.7501 500.748 33.2617V23.3801C500.748 21.8917 501.951 20.6851 503.435 20.6851ZM730.989 20.6851H773.992C775.476 20.6851 776.679 21.8917 776.679 23.3801V33.2617C776.679 34.7501 775.476 35.9567 773.992 35.9567H730.989C729.505 35.9567 728.302 34.7501 728.302 33.2617V23.3801C728.302 21.8917 729.505 20.6851 730.989 20.6851ZM671.861 20.6851H713.967C715.452 20.6851 716.655 21.8917 716.655 23.3801V33.2617C716.655 34.7501 715.452 35.9567 713.967 35.9567H671.861C670.377 35.9567 669.173 34.7501 669.173 33.2617V23.3801C669.173 21.8917 670.377 20.6851 671.861 20.6851ZM445.203 259.913H642.297C643.286 259.913 644.089 260.717 644.089 261.71V277.003C644.089 277.995 643.286 278.799 642.297 278.799H445.203C444.213 278.799 443.411 277.995 443.411 277.003V261.71C443.411 260.717 444.213 259.913 445.203 259.913ZM409.368 229.335H676.34C677.33 229.335 678.132 230.139 678.132 231.132V246.425C678.132 247.417 677.33 248.221 676.34 248.221H409.368C408.378 248.221 407.576 247.417 407.576 246.425V231.132C407.576 230.139 408.378 229.335 409.368 229.335ZM317.988 328.784C317.988 326.803 319.6 325.197 321.573 325.197H765.927C767.907 325.197 769.512 326.803 769.512 328.784V620.194C769.512 622.175 767.9 623.782 765.927 623.782H321.573C319.593 623.782 317.988 622.175 317.988 620.194V328.784ZM320.79 646.8H525.718C527.315 646.8 527.894 646.967 528.478 647.28C529.062 647.593 529.521 648.053 529.833 648.638C530.145 649.224 530.312 649.805 530.312 651.406V712.343C530.312 713.945 530.145 714.526 529.833 715.111C529.521 715.697 529.062 716.156 528.478 716.469C527.894 716.783 527.315 716.949 525.718 716.949H320.79C319.192 716.949 318.613 716.783 318.029 716.469C317.445 716.156 316.987 715.697 316.674 715.111C316.362 714.526 316.196 713.945 316.196 712.343V651.406C316.196 649.805 316.362 649.224 316.674 648.638C316.987 648.053 317.445 647.593 318.029 647.28C318.613 646.967 319.192 646.8 320.79 646.8ZM559.99 646.8H764.918C766.516 646.8 767.095 646.967 767.679 647.28C768.263 647.593 768.721 648.053 769.034 648.638C769.346 649.224 769.512 649.805 769.512 651.406V712.343C769.512 713.945 769.346 714.526 769.034 715.111C768.721 715.697 768.263 716.156 767.679 716.469C767.095 716.783 766.516 716.949 764.918 716.949H559.99C558.393 716.949 557.814 716.783 557.23 716.469C556.646 716.156 556.187 715.697 555.875 715.111C555.563 714.526 555.396 713.945 555.396 712.343V651.406C555.396 649.805 555.563 649.224 555.875 648.638C556.187 648.053 556.646 647.593 557.23 647.28C557.814 646.967 558.393 646.8 559.99 646.8Z" fill="#E1E5F0"/>
<path d="M618.961 425.893C632.041 425.893 642.645 415.216 642.645 402.046C642.645 388.875 632.041 378.198 618.961 378.198C605.88 378.198 595.276 388.875 595.276 402.046C595.276 415.216 605.88 425.893 618.961 425.893Z" fill="#F2F6FB"/>
<path d="M543.302 206.759V203.166C548.286 203.166 553.181 202.514 557.901 201.239L558.833 204.709C553.81 206.065 548.601 206.759 543.302 206.759ZM573.291 198.65L571.485 195.547C575.741 193.055 579.655 190.009 583.122 186.493L585.67 189.019C581.983 192.759 577.82 196 573.291 198.65ZM595.134 176.495L592.018 174.72C594.449 170.43 596.308 165.833 597.538 161.033L601.008 161.927C599.699 167.036 597.721 171.93 595.134 176.495ZM602.874 146.252L599.29 146.297C599.228 141.303 598.514 136.403 597.181 131.685L600.629 130.706C602.048 135.727 602.807 140.941 602.874 146.252ZM594.396 116.28L591.325 118.132C588.785 113.897 585.697 110.012 582.146 106.582L584.632 103.994C588.409 107.642 591.694 111.775 594.396 116.28ZM572.025 94.6697L570.294 97.8165C565.986 95.435 561.379 93.6315 556.575 92.4608L557.422 88.9692C562.535 90.2153 567.439 92.135 572.025 94.6697ZM541.769 87.3004L541.859 90.8926C536.882 91.0188 532.003 91.7975 527.313 93.1963L526.292 89.7521C531.284 88.2633 536.475 87.4346 541.769 87.3004ZM511.99 96.1882L513.876 99.2436C509.685 101.845 505.851 104.992 502.476 108.596L499.863 106.136C503.453 102.303 507.532 98.9553 511.99 96.1882ZM490.727 118.899L493.887 120.593C491.569 124.943 489.83 129.586 488.725 134.418L485.232 133.615C486.409 128.471 488.259 123.529 490.727 118.899ZM483.77 149.331L487.351 149.195C487.54 154.181 488.38 159.063 489.837 163.749L486.416 164.818C484.865 159.83 483.971 154.635 483.77 149.331ZM493.018 179.071L496.04 177.141C498.688 181.309 501.875 185.113 505.512 188.451L503.093 191.101C499.225 187.552 495.834 183.505 493.018 179.071ZM515.936 200.097L517.584 196.907C521.951 199.175 526.603 200.858 531.438 201.903L530.682 205.416C525.535 204.303 520.583 202.511 515.936 200.097ZM580.808 570.301L549.724 570.442L549.812 570.301H414.044C405.634 570.301 402.433 564.504 406.893 557.355L499.673 408.641C504.133 401.491 511.517 401.39 516.168 408.428L585.109 513.608L609.499 474.435C613.431 468.12 619.953 468.021 624.071 474.22L680.535 559.222C684.651 565.419 682.009 569.9 674.574 569.669L633.284 570.063L620.246 570.122L620.354 570.301C620.354 570.301 613.542 570.301 605.127 570.301H580.808Z" fill="#3C41FF"/>
<path opacity="0.176986" d="M619.985 570.505C619.985 570.505 613.173 570.505 604.758 570.505H413.675C405.265 570.505 402.064 564.708 406.524 557.559L499.303 408.845C503.764 401.695 511.147 401.594 515.799 408.633L596.03 531.035" fill="#444444"/>
<path d="M1085.76 863.298H993.931C991.781 863.298 989.899 861.743 989.899 859.878V858.634C989.899 856.768 991.691 855.213 993.931 855.213H1085.76C1087.91 855.213 1089.79 856.768 1089.79 858.634V859.878C1089.79 861.743 1088 863.298 1085.76 863.298ZM874.778 855.213C877.005 855.213 878.81 857.023 878.81 859.256C878.81 861.488 877.005 863.298 874.778 863.298H728.75C726.523 863.298 724.718 861.488 724.718 859.256C724.718 857.023 726.523 855.213 728.75 855.213H874.778Z" fill="#9105C6"/>
<path d="M1086.25 855.24C1086.09 855.222 1085.92 855.213 1085.76 855.213H994.239L1001.48 809.386L1065.63 800.672L1086.25 855.24ZM875.312 855.248C875.138 855.225 874.959 855.213 874.778 855.213H729.384C729.288 854.721 729.239 854.101 729.253 853.299C729.353 852.671 729.366 851.953 729.558 851.237C730.707 846.945 732.101 844.094 736.177 841.56C740.254 839.026 744.415 836.763 748.75 834.772C764.741 827.235 770.205 827.331 780.719 820.417C785.07 817.528 789.071 814.184 792.808 810.566C795.299 808.153 800.385 804.235 808.066 798.809L877.135 800.36L875.312 855.248Z" fill="#474961"/>
<path d="M972.527 304.73C979.345 318.041 997.801 359.345 1014.28 443.426C1015.63 450.401 1016.94 457.192 1018.19 463.786L1018.31 463.634C1040.89 548.945 1056.56 608.668 1065.33 642.803C1074.33 677.863 1061.85 677.316 1068.68 706.811C1072.61 723.817 1085.8 737.492 1085.69 755.199C1085.67 757.996 1085.74 763.589 1085.89 771.978C1086.16 786.96 1075.24 799.79 1060.44 801.875L1000.67 810.299C984.504 812.577 969.554 801.281 967.282 785.068C967.261 784.918 967.241 784.769 967.223 784.619C965.61 771.686 964.794 763.998 964.773 761.553C964.73 756.489 964.667 751.878 964.57 747.677C961.126 733.545 957.538 718.837 954.649 706.98C950.753 700.944 946.168 692.599 942.555 679.099C940.178 670.218 934.774 635.648 926.344 575.391C926.182 574.583 925.874 572.092 925.42 567.918L913.62 524.367C913.127 529.454 912.626 534.599 912.118 539.79C913.159 611.966 913.132 652.512 912.036 661.428C908.589 689.49 898.277 697.217 897.975 706.035C897.68 714.673 898.989 727.26 901.478 746.181C901.797 748.604 902.055 756.332 902.254 769.364C902.256 769.515 902.257 769.666 902.257 769.817C902.257 782.938 893.755 794.069 881.973 797.972C874.561 804.737 862.627 799.59 831.29 799.804C831.29 799.804 826.469 799.846 820.101 799.462L812.334 799.462C807.736 799.462 803.361 798.403 799.453 796.504C795.749 795.463 792.684 794.095 790.977 792.297C789.55 790.753 788.651 789.001 788.651 789.001C788.226 788.045 787.92 787.105 787.701 786.215C785.223 782.477 783.562 778.128 782.987 773.406C781.974 765.078 781.265 759.53 780.859 756.762C778.288 739.243 789.451 723.861 790.989 706.471C793.657 676.311 781.368 678.595 785.418 642.62C789.325 607.918 796.718 567.862 807.596 522.451C813.888 450.93 822.168 370.569 831.29 343.565C831.443 343.083 837.133 323.942 845.359 310.429C845.61 310.701 845.871 310.961 846.141 311.211C847.17 312.181 848.195 312.882 849.217 313.403C851.263 314.625 852.959 315.044 852.959 315.044C852.959 315.044 853.043 315.043 853.129 315.131C853.129 315.131 908.055 328.905 962.552 313.216L962.719 313.123C962.719 313.123 964.399 312.645 966.402 311.352C967.32 310.797 968.403 309.969 969.4 309.053C970.649 307.829 971.679 306.355 972.527 304.73Z" fill="#8F4AFF"/>
<path opacity="0.176986" d="M857.11 316.01L885.787 422.039L913.592 524.652C913.108 529.646 912.616 534.696 912.118 539.79C913.159 611.966 913.132 652.512 912.036 661.428C908.589 689.49 898.277 697.217 897.975 706.035C897.68 714.673 898.989 727.26 901.478 746.181C901.797 748.604 902.055 756.332 902.254 769.364C902.256 769.515 902.257 769.666 902.257 769.817C902.257 782.938 893.755 794.069 881.973 797.972C874.561 804.737 862.627 799.59 831.29 799.804C831.29 799.804 826.469 799.846 820.101 799.462L812.334 799.462C807.736 799.462 803.361 798.403 799.453 796.504C795.749 795.463 792.684 794.095 790.977 792.297C789.55 790.753 788.651 789.001 788.651 789.001C788.226 788.045 787.92 787.105 787.701 786.215C785.223 782.477 783.562 778.128 782.987 773.406C781.974 765.078 781.265 759.53 780.859 756.762C778.288 739.243 789.451 723.861 790.989 706.471C793.657 676.311 781.368 678.595 785.418 642.62C789.325 607.918 796.718 567.862 807.596 522.451C813.888 450.93 822.168 370.569 831.29 343.565C831.443 343.083 837.133 323.942 845.359 310.429C845.61 310.701 845.871 310.961 846.141 311.211C847.17 312.181 848.195 312.882 849.217 313.403C851.263 314.625 852.959 315.044 852.959 315.044C852.959 315.044 853.043 315.043 853.129 315.131C853.129 315.131 854.531 315.483 857.11 316.01Z" fill="#444444"/>
<path d="M973.478 191.959C973.581 192.991 973.682 194.058 973.781 195.158L973.785 195.428L974.031 199.826C975.473 248.767 976.194 270.767 976.597 279.385C976.597 279.385 976.528 280.285 976.636 281.631C976.874 285.58 977.241 301.836 969.773 309.154C968.777 310.07 967.694 310.898 966.775 311.453C964.772 312.746 963.093 313.225 963.093 313.225L962.926 313.317C908.428 329.006 853.502 315.232 853.502 315.232C852.574 314.987 851.678 314.736 849.973 313.883C848.301 313.046 846.708 311.813 846.198 311.333C838.565 304.278 838.682 287.999 838.782 284.044C838.76 282.786 838.743 281.798 838.743 281.798C838.838 273.578 838.805 253.614 838.581 210.303C817.184 208.313 808.522 202.124 812.594 191.737C821.844 168.142 827.971 145.501 864.644 142.885C873.643 138.387 883.468 136.88 890.307 136.422C894.269 136.173 897.224 136.211 898.406 136.28C898.913 136.271 899.589 136.349 900.856 136.417C902.123 136.484 903.559 136.549 905.164 136.611C906.765 136.493 908.198 136.378 909.462 136.266C910.725 136.154 911.314 136.054 911.905 136.044C913.169 135.932 916.036 135.792 920.004 135.902C920.95 135.932 921.954 135.98 923.006 136.05C923.536 135.928 924.074 135.808 924.62 135.69C962.313 127.533 974.231 148.185 989.534 168.952C995.66 177.265 990.307 184.933 973.478 191.959Z" fill="#F0549E"/>
<path opacity="0.176986" d="M864.076 142.882C858.839 145.529 853.893 149.197 849.991 154.27C848.258 156.547 846.04 160 844.354 164.971C844.113 165.694 843.871 166.327 843.631 167.05C843.067 168.587 841.858 171.843 840.822 175.365C839.709 179.338 838.828 186.901 838.252 197.423L838.257 197.692L838.165 202.096C838.179 204.87 838.193 207.557 838.207 210.16C817.338 208.099 808.916 201.933 812.942 191.663C822.115 168.266 828.216 145.808 864.076 142.882Z" fill="#444444"/>
<path d="M967.291 411.718C966.544 412.3 966.101 412.559 966.101 412.559C954.341 410.58 971.157 366.902 976.169 354.539L933.955 203.119C960.16 197.564 977.447 191.508 985.814 184.952C1008.57 276.779 1020.87 335.676 1022.71 361.641C1022.85 362.464 1022.93 363.347 1022.96 364.288C1023.45 379.398 1018.45 402.522 1007.94 433.661C1007.86 433.843 980.539 447.295 961.318 435.923L967.291 411.718ZM852.331 57.2239C852.369 57.1738 852.407 57.1231 852.444 57.0716C860.306 48.2351 874.782 48.4961 881.301 49.9057C882.093 50.0796 884.907 50.7374 888.977 51.4374C891.186 51.8508 892.968 52.0386 894.028 52.2407C907.247 54.1758 912.672 53.1217 918.98 57.3996C920.162 58.1565 922.844 60.0651 925.011 63.455C931.123 73.0416 928.231 84.2988 927.43 87.6469C924.759 97.6627 918.223 103.297 916.169 105.7C914.641 107.517 912.52 109.546 910.457 111.378L912.454 140.372C912.476 141 912.229 141.638 911.701 141.926C909.424 143.444 906.167 145.176 902.08 146.218C894.708 148.184 888.307 147.15 884.688 146.198C883.966 146.043 883.404 145.344 883.379 144.626L882.297 125.613C881.513 125.818 880.676 126.031 879.784 126.254C871.911 128.315 872.384 128.094 871.831 128.216C866.068 129.054 861.276 128.368 860.403 128.095C857.224 127.489 854.119 124.452 851.567 119.577C848.106 113.069 845.445 103.214 844.675 91.6614C844.487 90.0157 844.566 88.3981 844.646 86.7806L845.966 70.751C846.251 67.1679 847.427 63.6788 849.547 60.6503C850.409 59.296 851.244 58.2097 852.238 57.3208C852.269 57.2884 852.3 57.2561 852.331 57.2239ZM812.67 200.538C815.52 205.697 824.157 208.947 838.583 210.289C838.739 240.589 838.802 259.462 838.794 270.882C817.28 297.451 802.884 293.306 802.884 293.306C792.858 293.741 785.192 289.169 782.299 287.414C757.06 272.151 709.148 187.21 700.885 172.33C689.976 170.832 679.792 167.958 670.333 163.708C655.247 156.929 649.168 150.499 652.096 144.415L729.409 149.421L729.621 149.273L796.671 220.033C803.698 212.546 808.472 206.432 812.67 200.538Z" fill="#F2A98A"/>
<path opacity="0.2" d="M812.96 200.538C815.809 205.697 824.446 208.947 838.872 210.288C839.028 240.589 839.092 259.462 839.083 270.882C817.569 297.451 803.174 293.306 803.174 293.306C793.148 293.741 785.481 289.169 782.588 287.414C757.349 272.151 709.437 187.21 701.174 172.33C690.265 170.832 680.081 167.957 670.622 163.707C655.536 156.929 649.457 150.499 652.385 144.415L729.698 149.42L729.91 149.273L796.96 220.033C803.987 212.546 808.761 206.432 812.96 200.538Z" fill="#8C2A00"/>
<path d="M880.845 125.928L894.043 121.705L883.246 138.248L880.845 125.928Z" fill="#482D1F"/>
<path d="M913.024 89.6355C913.119 87.4587 912.672 85.2244 911.505 83.1682C909.075 78.8474 903.963 76.0504 899.537 77.0292C897.047 77.5797 895.246 79.2869 895.049 79.4468C892.325 82.2308 891.454 85.3908 891.454 85.3908L891.017 87.4883C858.908 75.2059 852.682 59.7045 851.009 58.7269C851.52 58.1484 852.022 57.6593 852.336 57.2408C860.288 48.4137 875.031 48.7029 881.638 50.1219C882.52 50.3052 885.333 50.963 889.493 51.6724C891.791 52.0952 893.573 52.283 894.632 52.485C908.119 54.4484 913.634 53.4036 920.03 57.6909C921.212 58.4478 923.984 60.3658 926.151 63.7557C932.91 74.0428 929.831 85.3706 928.659 87.957C927.838 89.7674 926.549 90.8961 926.549 90.8961C921.804 90.1828 917.38 89.8668 913.024 89.6355ZM842.368 82.309C841.483 82.0826 841.275 80.9023 841.934 80.3072C842.777 79.6318 844.246 78.9894 846.035 79.0834C849.703 79.2762 853.513 81.9052 849.342 82.7655C846.893 83.2665 844.049 82.7572 842.368 82.309ZM860.765 83.9055C859.88 83.6791 859.672 82.4987 860.421 81.9084C861.264 81.233 862.733 80.5906 864.611 80.6893C868.279 80.882 872.085 83.6008 867.918 84.3713C865.286 84.9527 862.446 84.3537 860.765 83.9055Z" fill="#482D1F"/>
<path d="M849.018 88.9554C848.849 90.4758 848.449 92.9736 847.508 93.8237C845.917 95.0894 844.183 90.5004 845.491 87.7806C845.999 86.6378 846.635 86.4913 847.346 86.6186C848.41 86.8545 849.074 87.8789 849.018 88.9554ZM865.042 89.6176C865.052 91.1474 864.92 93.6592 863.97 94.6887C862.548 96.1433 860.268 91.7056 861.313 88.8818C861.731 87.7344 862.372 87.4982 863.087 87.5358C864.161 87.5922 865.009 88.5364 865.042 89.6176Z" fill="#482D1F"/>
<path d="M856.744 107.623C857.38 107.476 858.924 107.108 859.244 106.135C859.254 105.955 859.357 105.691 859.277 105.507C858.952 104.86 857.86 105.163 856.245 105.168C853.373 105.197 851.061 104.805 851.061 104.805C851.061 104.805 851.593 106.632 852.012 107.194C852.837 108.587 855.746 107.84 856.744 107.623Z" fill="#482D1F"/>
<path d="M851.604 89.2713L851.619 89.1472L851.607 89.2087L851.604 89.2713ZM849.775 98.6756C849.554 99.6785 850.284 100.713 851.295 100.937C851.517 100.97 851.517 100.97 851.661 100.988C853.165 101.184 854.106 101.277 855.726 101.362C856.22 101.388 856.642 101.008 856.668 100.512C856.694 100.017 856.314 99.5939 855.82 99.568C854.251 99.4855 853.353 99.3969 851.892 99.2067L851.604 99.1691C851.601 99.165 851.526 99.0576 851.529 99.0406L853.378 89.4894L853.393 89.3653L853.669 84.0724C853.695 83.5769 853.316 83.1542 852.822 83.1283C852.328 83.1023 851.906 83.4829 851.88 83.9784L851.607 89.2087L849.775 98.6756Z" fill="#482D1F"/>
<path d="M912.965 88.2489C913.098 90.9098 912.329 93.7102 910.904 95.8771C909.161 98.6135 906.969 99.9749 904.223 100.911C903.754 101.071 903.504 101.581 903.663 102.051C903.822 102.52 904.331 102.772 904.799 102.612C906.007 102.2 906.975 101.782 908.119 101.072C909.805 100.025 911.268 98.643 912.407 96.8552C914.034 94.3813 914.907 91.2029 914.754 88.1587C914.729 87.6631 914.308 87.2817 913.814 87.3066C913.32 87.3315 912.94 87.7534 912.965 88.2489Z" fill="#482D1F"/>
<path d="M981.419 407.229C981.561 406.499 982.267 406.022 982.995 406.164C983.723 406.307 984.199 407.014 984.057 407.745C983.165 412.333 982.359 415.876 980.476 423.746C978.603 431.58 977.802 435.097 976.92 439.635C976.778 440.366 976.073 440.842 975.344 440.7C974.616 440.558 974.14 439.85 974.282 439.12C975.174 434.532 975.981 430.989 977.863 423.118C979.736 415.284 980.537 411.767 981.419 407.229ZM999.59 403.276C999.777 402.556 1000.51 402.124 1001.23 402.311C1001.95 402.499 1002.38 403.234 1002.19 403.955C1000.91 408.888 1000.01 412.735 998.056 421.318C996.1 429.928 995.19 433.793 993.901 438.762C993.714 439.482 992.98 439.914 992.262 439.727C991.544 439.54 991.113 438.804 991.3 438.084C992.579 433.15 993.485 429.303 995.435 420.72C997.391 412.11 998.301 408.245 999.59 403.276Z" fill="#482D1F"/>
<path d="M696.946 164.628C728.612 164.628 754.282 138.687 754.282 106.686C754.282 74.6852 728.612 48.7435 696.946 48.7435C665.28 48.7435 639.609 74.6852 639.609 106.686C639.609 138.687 665.28 164.628 696.946 164.628Z" fill="#474BFF"/>
<path d="M697.101 105.333C690.775 105.333 685.647 100.254 685.647 93.9898C685.647 87.7251 690.775 82.6466 697.101 82.6466C703.427 82.6466 708.555 87.7251 708.555 93.9898C708.555 100.254 703.427 105.333 697.101 105.333ZM697.101 111.005C708.567 111.005 717.862 120.209 717.862 131.564H676.34C676.34 120.209 685.635 111.005 697.101 111.005Z" fill="#F2F6FB"/>
<path d="M85.3267 663.521V663.689C85.3267 665.845 87.208 667.641 89.3582 667.641H156.999L133.167 711.48C116.145 742.742 99.2129 773.914 82.2807 805.176L54.2396 856.74C53.2541 858.537 54.0604 860.873 55.9417 861.951L56.3001 862.13C58.1815 863.208 60.6003 862.579 61.4962 860.873L166.404 667.641H236.283L341.191 860.873C342.087 862.579 344.505 863.118 346.387 862.13L346.745 861.951C348.626 860.873 349.433 858.537 348.447 856.74L320.406 805.176C303.384 773.914 286.452 742.742 269.52 711.48L245.688 667.641H335.367C337.607 667.641 339.399 665.845 339.399 663.689V663.239C339.399 661.083 337.518 659.287 335.367 659.287H274.447C234.76 659.287 194.983 659.287 155.206 659.287H93.2366L85.6851 598.02C80.489 556.338 75.3824 514.565 70.1863 472.793L61.6754 403.801C61.4066 401.375 59.3461 399.579 57.1064 399.848L56.6584 399.938C54.5083 400.207 52.9854 402.453 53.2541 404.699L85.2371 663.06C85.2603 663.217 85.2903 663.371 85.3267 663.521Z" fill="#D8DEED"/>
<path d="M280.119 855.565C279.57 855.287 278.953 855.13 278.307 855.13H229.863L140.96 788.714L174.647 741.395L228.579 780.652C231.535 790.713 234.581 800.774 237.627 810.926C239.24 816.226 240.852 821.436 242.465 826.646C247.482 828.623 251.782 830.419 254.828 831.767C260.651 834.282 265.579 836.618 270.954 840.121C270.954 840.121 275.613 842.996 278.211 847.128C279.017 848.476 279.734 850.003 280.182 851.62C280.361 852.339 280.361 853.057 280.45 853.686C280.422 854.276 280.289 854.936 280.119 855.565ZM447.919 855.415C447.625 855.346 447.317 855.31 447.002 855.31H302.765C302.494 855.31 302.231 855.337 301.975 855.387L300.575 799.385L368.31 799.188C376.588 804.613 381.973 808.532 384.464 810.945C388.201 814.563 392.202 817.907 396.553 820.796C407.067 827.71 412.531 827.614 428.522 835.151C432.857 837.142 437.018 839.405 441.094 841.939C445.171 844.473 446.564 847.324 447.714 851.616C447.906 852.332 447.918 853.05 448.019 853.678C448.031 854.387 447.995 854.953 447.919 855.415Z" fill="#474961"/>
<path d="M226.6 862.491C226.511 862.435 226.424 862.374 226.339 862.31L136.392 795.115C134.601 793.767 134.242 791.162 135.586 789.366C136.93 787.569 139.528 787.21 141.32 788.557L230.304 855.034H278.748C280.988 855.034 282.869 856.92 282.869 859.166C282.869 861.412 280.988 863.298 278.748 863.298H229.027C228.115 863.298 227.278 863.001 226.6 862.491ZM303.206 855.213H447.443C449.669 855.213 451.474 857.023 451.474 859.256C451.474 861.489 449.669 863.298 447.443 863.298H303.206C300.979 863.298 299.174 861.489 299.174 859.256C299.174 857.023 300.979 855.213 303.206 855.213Z" fill="#FF5645"/>
<path d="M398.632 626.783C391.957 661.968 389.226 713.537 395.772 745.997C395.772 745.997 402.571 801.784 397.808 802.143C396.653 802.233 384.371 802.772 383.072 802.862C350.744 805.018 294.602 809.33 286.232 809.33C280.651 809.33 277.861 805.737 277.861 798.55L276.04 779.253V779.096C269.866 786.484 263.457 794.143 256.812 802.075C246.927 805.017 231.975 800.802 211.957 789.432C191.938 778.061 176.443 766.852 165.472 755.804C160.186 752.39 147.322 733.511 150.726 728.57L173.213 695.691L186.651 676.017C190.414 670.448 193.254 666.755 197.286 660.916C197.286 660.826 198.008 659.757 198.008 659.668C196.574 659.668 198.208 658.5 187.995 658.41C177.782 658.32 122.775 657.152 101.722 626.699C93.3232 614.55 92.6733 601.096 92.0462 595.077C89.7169 571.661 95.8775 552.684 110.528 538.146C114.452 535.256 117.34 533.542 119.191 533.003C122.148 532.104 137.736 531.655 140.782 531.475L203.315 530.667C233.072 530.27 257.916 529.933 277.848 529.655L277.861 529.499L277.848 529.655C318.125 529.092 338.344 528.771 338.503 528.691C338.862 528.511 377.511 530.128 387.903 536.147C407.808 547.841 418.276 584.691 398.632 626.783Z" fill="#FFC855"/>
<path opacity="0.2" d="M398.436 627.135C391.788 662.315 389.079 713.752 395.614 746.152C395.614 746.152 402.412 801.939 397.649 802.298C396.495 802.388 384.212 802.927 382.913 803.017C350.585 805.173 294.444 809.485 286.073 809.485C280.493 809.485 277.702 805.892 277.702 798.705L275.884 779.439C353.065 687.086 393.461 637.263 397.074 629.969C397.544 629.022 397.998 628.077 398.436 627.135ZM277.666 530.095L277.702 529.654L277.666 530.095ZM311.502 529.609C311.485 529.609 311.467 529.609 311.45 529.61L310.175 529.385H310.319C310.715 529.46 311.109 529.534 311.502 529.609Z" fill="#8C2A00"/>
<path d="M238.641 599.746C234.221 606.45 229.565 612.964 218.263 628.468C206.922 644.024 202.252 650.559 197.789 657.329C197.243 658.157 197.47 659.272 198.295 659.819C199.121 660.366 200.232 660.139 200.778 659.311C205.198 652.607 209.853 646.093 221.156 630.589C232.496 615.033 237.166 608.498 241.63 601.728C242.176 600.9 241.949 599.785 241.124 599.238C240.298 598.691 239.186 598.918 238.641 599.746Z" fill="#482D1F"/>
<path d="M388.6 369.499C391.643 371.883 392.184 376.287 389.808 379.337C389.772 379.383 389.735 379.429 389.698 379.475L352.686 424.576C350.786 426.892 347.391 427.265 345.033 425.418C342.675 423.571 342.215 420.176 343.996 417.768L378.682 370.845C380.98 367.736 385.358 367.086 388.46 369.392C388.507 369.427 388.554 369.463 388.6 369.499Z" fill="#474961"/>
<path d="M380.947 378.822C388.748 384.934 399.911 383.677 405.88 376.016C408.749 372.333 404.752 364.654 405.74 353.266C405.97 350.606 407.811 346.307 411.261 340.369L411.261 340.369C411.51 339.941 411.366 339.391 410.938 339.141C410.729 339.019 410.48 338.986 410.247 339.051C392.332 344.024 381.46 348.968 377.631 353.883C371.662 361.545 373.147 372.71 380.947 378.822Z" fill="#F2F6FB"/>
<path d="M389.423 368.043C391.26 369.482 397.28 365.76 398.16 367.709C401.11 374.244 401.023 383.077 405.856 376.874C408.872 373.002 404.833 365.057 406 353.187C406.274 350.406 408.244 345.888 411.91 339.634L411.91 339.634C412.161 339.206 412.018 338.655 411.591 338.404C411.379 338.279 411.124 338.247 410.888 338.315C392.259 343.727 380.931 349.018 376.903 354.189C373.293 358.822 376.191 361.228 381.694 361.988C383.618 362.253 384.92 359.983 387.632 359.46C390.648 358.878 387.634 366.642 389.423 368.043Z" fill="#474BFF"/>
<path d="M214.681 369.571C236.945 377.328 251.051 400.248 246.898 424.477L228.24 530.33L124.822 532.155C118.901 531.087 114.726 528.601 112.295 524.696C108.65 518.839 109.64 511.418 110.136 508.56L128.767 403.895C133.371 377.335 158.34 359.462 184.799 363.674L186.606 355.137C186.811 354.166 187.762 353.547 188.73 353.754L215.01 359.364C215.978 359.571 216.595 360.525 216.39 361.495L214.681 369.571Z" fill="#FF4F03"/>
<path d="M193.281 324.895C191.405 344.066 190.398 353.748 190.26 353.94C190.118 354.137 198.234 355.897 214.607 359.221L216.059 351.806C216.441 351.949 216.834 352.095 217.238 352.244C224.814 355.169 224.362 354.907 224.902 355.078C230.571 356.508 235.404 356.335 236.298 356.23C243.811 355.562 252.342 341.664 255.931 321.74C256.26 320.117 256.321 318.498 256.472 316.878L256.903 300.783C257.018 297.186 256.238 293.604 254.481 290.489C253.741 289.153 253.002 287.908 252.179 286.933C242.736 274.693 225.762 277.232 222.724 277.644C222.366 277.65 222.009 277.746 221.651 277.752C218.263 278.619 215.207 278.042 211.982 278.008C210.549 278.033 209.406 279.221 209.342 280.66L209.301 303.668C209.25 305.826 203.044 300.903 200.623 300.765C196.319 300.479 191.629 307.208 190.095 311.638C188.388 316.43 189.907 321.258 192.739 324.355C192.917 324.543 193.098 324.723 193.281 324.895ZM252.559 484.001C254.461 483.353 256.357 482.702 258.249 482.048C272.724 477.042 286.972 471.938 302.432 466.267C307.641 464.409 309.876 463.48 313.615 461.991C325.795 457.095 371.631 438.282 373.825 436.53C381.548 433.211 376.469 405.608 376.466 395.525C363.673 401.167 346.086 408.393 323.706 417.202C319.19 419.534 315.934 422.566 313.603 425.093C309.797 425.38 279.362 430.684 251.32 435.38C252.088 435.249 252.857 435.118 253.628 434.986C253.444 427.805 252.12 416.845 246.432 404.941C247.849 411.152 248.089 417.754 246.941 424.454L244.824 436.464C228.421 439.19 213.675 441.543 206.75 442.331C206.358 441.194 203.27 427.781 197.488 402.093L144.113 417.144C145.34 424.524 148.283 436.354 152.942 452.633C159.931 477.052 162.632 495.287 180.894 500.634C185.151 501.886 190.668 501.694 202.916 498.727C214.446 495.932 225.156 492.86 235.457 489.619L228.297 530.244L228.259 530.245L228.282 530.366L326.522 529.024C331.707 528.864 325.664 525.307 308.392 518.354C291.12 511.4 273.516 505.487 255.578 500.612L255.033 483.161C254.209 483.442 253.385 483.722 252.559 484.001ZM132.45 392.2C145.577 397.905 158.283 398.572 170.569 394.202C182.854 389.833 189.094 380.014 189.288 364.746C178.561 361.467 167.299 362.355 155.502 367.41C143.705 372.464 136.022 380.728 132.45 392.2Z" fill="#DB9E75"/>
<path d="M214.673 358.71L207.133 347.913L216.068 351.838L214.673 358.71Z" fill="#482D1F"/>
<path d="M250.913 318.158C251.016 317.071 251.853 316.203 252.925 316.128C253.64 316.079 254.291 316.393 254.647 317.628C255.473 320.45 252.992 324.762 251.717 323.231C250.748 322.219 250.841 319.693 250.913 318.158ZM234.97 318.731C235.073 317.644 235.91 316.775 236.982 316.701C237.697 316.651 238.348 316.965 238.704 318.2C239.53 321.022 237.049 325.334 235.774 323.803C234.805 322.791 234.808 320.272 234.97 318.731Z" fill="#482D1F"/>
<path d="M240.7 336.522C240.062 336.386 238.505 335.954 238.168 334.986C238.155 334.807 238.047 334.544 238.124 334.359C238.444 333.796 239.624 333.983 241.245 334.05C244.124 334.12 246.428 333.688 246.428 333.688C246.428 333.688 245.839 335.532 245.423 336.012C244.63 337.509 241.702 336.722 240.7 336.522Z" fill="#482D1F"/>
<path d="M257.128 310.802C258.009 310.56 258.291 309.459 257.622 308.875C256.767 308.214 255.364 307.411 253.571 307.447C249.895 307.523 246.025 309.956 250.044 310.936C252.609 311.658 255.449 311.189 257.128 310.802ZM239.794 312.013C240.675 311.771 240.957 310.67 240.198 310.092C239.343 309.431 237.94 308.628 236.058 308.67C232.382 308.746 228.518 311.268 232.531 312.159C235.185 312.875 238.025 312.406 239.794 312.013ZM193.351 338.197C196.664 335.972 198.914 332.475 200.102 327.708C198.467 327.243 195.951 326.24 193.908 323.932C191.165 320.833 189.648 316.095 191.358 311.481C192.892 307.05 197.31 303.559 201.615 303.844C204.036 303.982 205.941 305.298 206.213 305.473C209.208 307.669 210.513 310.523 210.513 310.523L212.451 315.456C215.53 313.285 221.725 305.051 231.036 290.754C236.211 290.131 240.206 289.699 243.023 289.459C247.248 289.099 251.781 289.526 253.488 288.84C253.365 289.144 253.243 289.449 253.121 289.756C253.425 289.224 253.579 288.928 253.579 288.928C253.664 288.657 252.207 287.334 252.204 287.154C243.305 275.352 226.93 276.442 223.892 276.854C223.533 276.86 223.177 276.956 222.817 276.873C217.811 277.498 213.603 277.66 210.739 277.799C197.131 278.303 191.815 276.597 184.979 280.13C183.737 280.781 180.808 282.359 178.267 285.549C176.797 287.335 175.694 289.232 174.874 291.151C167.065 290.893 161.522 294.786 158.245 302.829C153.869 313.569 160.588 323.301 168.954 327.281C172.483 336.098 182.156 342.45 189.946 339.915C191.348 339.458 192.483 338.886 193.351 338.197Z" fill="#482D1F"/>
<path d="M246.316 319.228L246.302 319.099L246.314 319.163L246.316 319.228ZM248.045 328.614L248.057 328.713C248.126 329.691 247.522 330.646 246.561 330.877C246.384 330.907 246.285 330.921 246.186 330.934C245.245 331.062 244.568 331.118 242.135 331.288C241.642 331.323 241.214 330.949 241.179 330.454C241.144 329.959 241.516 329.53 242.009 329.496C244.4 329.329 245.058 329.274 245.945 329.153C246.037 329.141 246.129 329.128 246.222 329.114C246.202 329.116 246.269 329.006 246.272 328.873L244.541 319.422L244.527 319.292L244.335 313.992C244.317 313.496 244.703 313.08 245.197 313.062C245.691 313.045 246.106 313.432 246.124 313.928L246.314 319.163L248.045 328.614Z" fill="#482D1F"/>
<path d="M196.532 401.49L196.53 394.248C196.53 393.503 197.131 392.9 197.873 392.9C198.614 392.901 199.216 393.504 199.216 394.248L199.218 401.491C199.219 402.235 198.617 402.839 197.876 402.838C197.134 402.838 196.533 402.235 196.532 401.49Z" fill="#482D1F"/>
<path opacity="0.2" d="M246.449 404.95C247.989 408.094 249.505 412.183 251 417.216C252.494 422.249 253.355 428.171 253.583 434.983L244.805 436.418C245.601 432.064 246.151 428.946 246.456 427.062C247.031 423.511 247.656 420.374 247.655 417.913C247.654 413.501 247.252 409.18 246.449 404.95ZM235.443 489.579L255.017 483.128L255.566 500.567C287.536 510.185 309.932 518.183 322.754 524.561C325.337 525.845 326.941 526.764 327.566 527.317C327.83 527.562 328.037 527.775 328.187 527.954C328.555 528.394 328.187 528.846 327.022 528.929C326.245 528.984 293.321 529.412 228.25 530.215L235.443 489.579Z" fill="#8C2A00"/>
</g>
</svg>
